<svg xmlns="http://www.w3.org/2000/svg" viewBox="26.4 -0.4 86.9 86.9"><path fill-rule="evenodd" clip-rule="evenodd" d="M127.355 97.5733C133.482 97.5733 139.691 101.213 139.691 107.959C139.691 114.764 133.455 118.124 127.355 118.124C121.256 118.124 115.019 114.68 115.019 107.878C115.019 100.851 121.256 97.5733 127.355 97.5733ZM72.6762 98.1301L72.7041 107.683C72.7041 112.043 74.9841 113.543 78.2818 113.543C81.2751 113.543 83.6389 111.598 83.6389 107.571V98.1301H89.0509V107.627C89.0509 113.932 84.958 117.875 78.2818 117.875C71.413 117.875 67.2362 113.959 67.2641 107.878C67.2641 104.683 67.2921 101.324 67.2921 98.1301H72.6762ZM102.324 97.6292C105.73 97.6292 108.779 98.4623 112.132 100.268L110.456 103.795C107.599 102.378 104.852 101.713 102.324 101.713C98.3673 101.713 97.4334 102.906 97.4334 103.628C97.4334 104.905 100.978 105.128 102.406 105.212C102.571 105.212 102.681 105.239 102.791 105.239C106.692 105.545 112.599 106.183 112.599 111.487C112.599 116.652 106.115 117.847 102.132 117.847C98.4501 117.847 96.1153 117.068 92.2957 115.069L94.0548 111.293C97.7078 112.903 99.9338 113.737 101.748 113.737C104.274 113.737 107.27 113.043 107.27 111.487C107.27 110.737 106.445 110.293 105.098 110.015C104.164 109.821 103.038 109.71 101.857 109.6C101.253 109.544 100.565 109.488 99.9059 109.404C96.1422 108.932 92.186 107.878 92.186 103.795C92.186 98.6578 98.6148 97.6292 102.324 97.6292ZM56.1068 98.1291C60.997 98.1291 63.5523 100.463 63.5523 104.016C63.5523 106.905 60.6957 109.183 57.5357 109.904L64.1011 116.624V117.597H58.8268L51.6287 110.265H49.5134V117.597H44.0735L44.0465 98.1291H56.1068ZM40.224 98.1291V102.129H27.6967C27.6967 103.406 27.6688 104.683 27.6688 105.989H38.385V109.877H27.6967V113.569H40.5802V117.597H22.1739L22.2019 98.1291H40.224ZM10.9887 98.1291C15.8799 98.1291 19.0668 100.657 19.0668 105.156C19.0668 109.544 15.358 112.07 10.8799 112.07H5.52178V117.597H0L0.0279388 98.1291H10.9887ZM127.355 101.796C122.685 101.796 120.24 104.516 120.24 107.96C120.24 111.21 122.684 113.903 127.355 113.903C132.026 113.903 134.47 111.293 134.47 107.96C134.47 104.572 131.998 101.795 127.356 101.795L127.355 101.796ZM10.6045 102.462H5.52178V108.015H10.3311C12.6929 108.015 13.9292 106.738 13.9292 105.212C13.9292 103.517 12.8855 102.462 10.6045 102.462ZM55.2557 102.129H49.5134V106.1H49.8726C51.5769 106.103 54.3288 106.123 54.8616 106.127H54.9534C57.3161 106.127 58.2231 105.101 58.2231 104.072C58.2231 103.073 57.6185 102.129 55.2557 102.129ZM111.465 0C112.257 0 112.899 0.642061 112.899 1.43418V84.6658C112.899 85.0462 112.748 85.411 112.479 85.6799C112.21 85.9489 111.846 86.1 111.465 86.1H28.2283C28.0397 86.1003 27.8529 86.0635 27.6786 85.9915C27.5043 85.9196 27.3459 85.814 27.2125 85.6808C27.079 85.5476 26.9732 85.3894 26.9009 85.2152C26.8287 85.0411 26.7915 84.8544 26.7915 84.6658V1.43418C26.7915 0.642061 27.4336 0 28.2283 0H111.465ZM104.995 43.8962H95.0554V53.7362H85.4187C77.3615 53.7362 70.6869 58.2331 70.6869 66.0436C70.6869 74.0509 76.4217 78.5478 85.2219 78.5478H104.997L104.995 43.8962ZM44.6355 43.8962H34.6962V78.5478H54.4715C63.2718 78.5478 69.0065 74.0509 69.0065 66.0436C69.0065 58.2331 62.3319 53.7338 54.2747 53.7338H44.6355V43.8962ZM53.2857 61.6132C57.537 61.6132 59.761 63.9133 59.761 66.6611C59.761 69.709 57.8839 71.6057 53.7802 71.6057H44.6355V61.6132H53.2857ZM95.0579 61.6132V71.6081H85.9108C81.8096 71.6081 79.9299 69.709 79.9299 66.6586C79.9299 63.9108 82.154 61.6132 86.4053 61.6132H95.0579ZM104.995 7.5522H85.2195C76.4192 7.5522 70.6844 12.0491 70.6844 20.0588C70.6844 27.8693 77.359 32.3662 85.4163 32.3662H95.0579V42.2062H104.995V7.5522ZM54.4715 7.5522H34.6987V42.2038H44.6355V32.3662H54.2747C62.3319 32.3662 69.0065 27.8693 69.0065 20.0588C69.0065 12.0491 63.2742 7.5522 54.4715 7.5522ZM95.0579 15.4291V25.4216H86.4028C82.1515 25.4216 79.9275 23.124 79.9275 20.3762C79.9275 17.3258 81.8047 15.4291 85.9083 15.4291H95.0579ZM53.7802 15.4291C57.8839 15.4291 59.761 17.3282 59.761 20.3737C59.761 23.124 57.537 25.4216 53.2857 25.4216H44.6355V15.4291H53.7802Z" fill="#8C6F42"/></svg>